# xmcd
#
# Track frame offsets:
#	150
#	11669
#	29341
#	38626
#	53463
#	63333
#	77349
#	91572
#	101397
#	120879
#
# Disc length: 1815 seconds
#
# Revision: 1
# Processed by: cddbd v1.4PL0 Copyright (c) Steve Scherf et al.
# Submitted via: audiograbber 1.82.02
#
DISCID=5c07150a
DTITLE=Riversbend Quartet - Volume One
DYEAR=1999
DGENRE=Gospel
TTITLE0=Canaanland
TTITLE1=Had It Not Been
TTITLE2=Give the World a Smile
TTITLE3=Mansion Over the Hilltop
TTITLE4=I'm Getting Ready
TTITLE5=Sweeter As the Days Go By
TTITLE6=I Surrender All
TTITLE7=Wonderful Time Up There
TTITLE8=Together In Heaven
TTITLE9=Love Will Roll the Clouds Away
EXTD=Good Gospel group.
EXTT0=
EXTT1=
EXTT2=
EXTT3=
EXTT4=
EXTT5=
EXTT6=
EXTT7=
EXTT8=
EXTT9=
PLAYORDER=
